<svg xmlns="http://www.w3.org/2000/svg" viewBox="0 0 32 32" width="32" height="32">
  <defs>
    <linearGradient id="bgGrad" x1="0%" y1="0%" x2="100%" y2="100%">
      <stop offset="0%" style="stop-color:#10b981;stop-opacity:1" />
      <stop offset="100%" style="stop-color:#059669;stop-opacity:1" />
    </linearGradient>
    <linearGradient id="goldGrad" x1="0%" y1="0%" x2="100%" y2="100%">
      <stop offset="0%" style="stop-color:#FFD700;stop-opacity:1" />
      <stop offset="100%" style="stop-color:#FFA500;stop-opacity:1" />
    </linearGradient>
    <linearGradient id="chartGrad" x1="0%" y1="0%" x2="100%" y2="100%">
      <stop offset="0%" style="stop-color:#3B82F6;stop-opacity:1" />
      <stop offset="100%" style="stop-color:#1E40AF;stop-opacity:1" />
    </linearGradient>
  </defs>
  
  <!-- Background circle -->
  <circle cx="16" cy="16" r="15" fill="url(#bgGrad)" stroke="#047857" stroke-width="1"/>
  
  <!-- Vassoura (lado esquerdo) -->
  <g transform="translate(3, 8)">
    <!-- Cabo da vassoura -->
    <rect x="2" y="0" width="1.5" height="14" fill="#8B4513" rx="0.7"/>
    
    <!-- Cabeça da vassoura -->
    <rect x="0" y="12" width="5" height="2.5" fill="#DAA520" rx="1"/>
    
    <!-- Cerdas -->
    <g stroke="#B8860B" stroke-width="0.4">
      <line x1="0.5" y1="14.5" x2="0.5" y2="16.5"/>
      <line x1="1.5" y1="14.5" x2="1.5" y2="17"/>
      <line x1="2.5" y1="14.5" x2="2.5" y2="16.8"/>
      <line x1="3.5" y1="14.5" x2="3.5" y2="17"/>
      <line x1="4.5" y1="14.5" x2="4.5" y2="16.5"/>
    </g>
  </g>
  
  <!-- Gráficos de dinheiro (lado direito) -->
  <g transform="translate(18, 6)">
    <!-- Gráfico de barras -->
    <rect x="0" y="8" width="2" height="6" fill="url(#chartGrad)" rx="0.3"/>
    <rect x="3" y="5" width="2" height="9" fill="url(#chartGrad)" rx="0.3"/>
    <rect x="6" y="3" width="2" height="11" fill="url(#chartGrad)" rx="0.3"/>
    <rect x="9" y="6" width="2" height="8" fill="url(#chartGrad)" rx="0.3"/>
    
    <!-- Base do gráfico -->
    <line x1="0" y1="14.5" x2="11" y2="14.5" stroke="#1E40AF" stroke-width="1"/>
    
    <!-- Símbolos de dinheiro nas barras -->
    <g fill="#FFD700" font-family="Arial, sans-serif" font-size="3" font-weight="bold">
      <text x="1" y="12" text-anchor="middle">$</text>
      <text x="4" y="10" text-anchor="middle">$</text>
      <text x="7" y="9" text-anchor="middle">$</text>
      <text x="10" y="11" text-anchor="middle">$</text>
    </g>
  </g>
  
  <!-- Gráfico de pizza pequeno (centro-superior) -->
  <g transform="translate(14, 2)">
    <circle cx="2" cy="2" r="2" fill="#FFD700"/>
    <path d="M 2,0 A 2,2 0 0,1 4,2 L 2,2 Z" fill="#10b981"/>
    <path d="M 4,2 A 2,2 0 0,1 2,4 L 2,2 Z" fill="#3B82F6"/>
    <circle cx="2" cy="2" r="0.3" fill="#FFFFFF"/>
  </g>
  
  <!-- Moedas flutuantes -->
  <g fill="url(#goldGrad)" stroke="#B8860B" stroke-width="0.5">
    <circle cx="8" cy="4" r="1.2"/>
    <circle cx="24" cy="26" r="1"/>
    <circle cx="6" cy="28" r="0.8"/>
  </g>
  
  <!-- Símbolos $ nas moedas -->
  <g fill="#2D5016" font-family="Arial, sans-serif" font-size="2" font-weight="bold">
    <text x="8" y="5" text-anchor="middle">$</text>
    <text x="24" y="27" text-anchor="middle">$</text>
    <text x="6" y="29" text-anchor="middle">$</text>
  </g>
  
  <!-- Linha de tendência crescente -->
  <g stroke="#FFD700" stroke-width="1.5" fill="none">
    <path d="M 10,20 Q 16,18 22,15"/>
    <!-- Seta indicando crescimento -->
    <polygon points="21,14 23,15 21,16" fill="#FFD700"/>
  </g>
</svg>